<svg xmlns="http://www.w3.org/2000/svg" width="1200" height="720" viewBox="0 0 1200 720" role="img" aria-labelledby="title desc">
<title id="title">Floating labels</title><desc id="desc">A floating editable Markdown label on a dark Obsidian-style note.</desc>
<rect width="1200" height="720" rx="22" fill="#090B16"/>
<rect x="20" y="20" width="1160" height="680" rx="18" fill="#0E1120" stroke="#2D3150"/>
<rect x="20" y="20" width="1160" height="48" rx="18" fill="#171A2B"/>
<circle cx="48" cy="44" r="6" fill="#F87171"/><circle cx="68" cy="44" r="6" fill="#FBBF24"/><circle cx="88" cy="44" r="6" fill="#34D399"/>
<text x="120" y="50" fill="#A9B0CE" font-family="Inter,Segoe UI,Arial,sans-serif" font-size="16">Obsidian · Floating labels</text>
<rect x="44" y="88" width="134" height="584" rx="13" fill="#15182A"/>
<g fill="#6E7697"><rect x="67" y="128" width="70" height="9" rx="4"/><rect x="67" y="163" width="48" height="9" rx="4"/><rect x="67" y="198" width="78" height="9" rx="4"/><rect x="67" y="233" width="58" height="9" rx="4"/></g>
<rect x="195" y="88" width="961" height="584" rx="13" fill="#0B0E1B"/>
<text x="226" y="143" fill="#F8FAFF" font-family="Inter,Segoe UI,Arial,sans-serif" font-size="31" font-weight="720"># Research Notes</text>
<text x="226" y="189" fill="#AEB5CD" font-family="Inter,Segoe UI,Arial,sans-serif" font-size="18">Floating Text Overlay keeps annotations close to the idea.</text>
<text x="226" y="309" fill="#AEB5CD" font-family="Inter,Segoe UI,Arial,sans-serif" font-size="18">The source Markdown remains clean and readable.</text>
<text x="226" y="344" fill="#AEB5CD" font-family="Inter,Segoe UI,Arial,sans-serif" font-size="18">Use the label as an editable, draggable research cue.</text>
<g transform="translate(670 162)"><rect width="332" height="255" rx="14" fill="#181A2E" stroke="#A78BFA" stroke-width="2"/><rect width="332" height="34" rx="14" fill="#24213F"/><text x="16" y="23" fill="#DDD6FE" font-family="Inter,Segoe UI,Arial,sans-serif" font-size="15" font-weight="700">⠿  Floating text</text><text x="293" y="23" fill="#DDD6FE" font-family="Inter,Segoe UI,Arial,sans-serif" font-size="18">×</text><text x="20" y="75" fill="#F5F3FF" font-family="Inter,Segoe UI,Arial,sans-serif" font-size="19">Draft the key takeaway</text><text x="20" y="108" fill="#F5F3FF" font-family="Inter,Segoe UI,Arial,sans-serif" font-size="19">without changing the</text><text x="20" y="141" fill="#F5F3FF" font-family="Inter,Segoe UI,Arial,sans-serif" font-size="19">Markdown body.</text><rect x="18" y="194" width="296" height="40" rx="9" fill="#262540"/><text x="144" y="220" fill="#E9E7FF" font-family="Inter,Segoe UI,Arial,sans-serif" font-size="14">Preview Markdown</text></g>
<rect x="44" y="627" width="1112" height="45" rx="12" fill="#11152A"/><text x="64" y="656" fill="#A7AFCE" font-family="Inter,Segoe UI,Arial,sans-serif" font-size="15">Illustrative dark-theme preview — replace with a local Obsidian capture before release submission.</text>
</svg>