<svg xmlns="http://www.w3.org/2000/svg" width="1200" height="720" viewBox="0 0 1200 720" role="img" aria-labelledby="title desc">
<title id="title">Appearance controls</title><desc id="desc">The context menu used to link text and change visual settings.</desc>
<rect width="1200" height="720" rx="22" fill="#090B16"/>
<rect x="20" y="20" width="1160" height="680" rx="18" fill="#0E1120" stroke="#2D3150"/>
<rect x="20" y="20" width="1160" height="48" rx="18" fill="#171A2B"/>
<circle cx="48" cy="44" r="6" fill="#F87171"/><circle cx="68" cy="44" r="6" fill="#FBBF24"/><circle cx="88" cy="44" r="6" fill="#34D399"/>
<text x="120" y="50" fill="#A9B0CE" font-family="Inter,Segoe UI,Arial,sans-serif" font-size="16">Obsidian · Appearance controls</text>
<rect x="44" y="88" width="134" height="584" rx="13" fill="#15182A"/>
<g fill="#6E7697"><rect x="67" y="128" width="70" height="9" rx="4"/><rect x="67" y="163" width="48" height="9" rx="4"/><rect x="67" y="198" width="78" height="9" rx="4"/><rect x="67" y="233" width="58" height="9" rx="4"/></g>
<rect x="195" y="88" width="961" height="584" rx="13" fill="#0B0E1B"/>
<text x="226" y="143" fill="#F8FAFF" font-family="Inter,Segoe UI,Arial,sans-serif" font-size="31" font-weight="720"># Research Notes</text>
<text x="226" y="189" fill="#AEB5CD" font-family="Inter,Segoe UI,Arial,sans-serif" font-size="18">Floating Text Overlay keeps annotations close to the idea.</text>
<text x="226" y="309" fill="#AEB5CD" font-family="Inter,Segoe UI,Arial,sans-serif" font-size="18">The source Markdown remains clean and readable.</text>
<text x="226" y="344" fill="#AEB5CD" font-family="Inter,Segoe UI,Arial,sans-serif" font-size="18">Use the label as an editable, draggable research cue.</text>
<g transform="translate(632 130)"><rect width="322" height="360" rx="14" fill="#181A2E" stroke="#A78BFA" stroke-width="2"/><text x="22" y="43" fill="#F5F3FF" font-family="Inter,Segoe UI,Arial,sans-serif" font-size="20" font-weight="700">Label options</text><rect x="20" y="62" width="282" height="1" fill="#353958"/><text x="22" y="103" fill="#BDC4E0" font-family="Inter,Segoe UI,Arial,sans-serif" font-size="17">Link current selection</text><text x="22" y="144" fill="#BDC4E0" font-family="Inter,Segoe UI,Arial,sans-serif" font-size="17">Locate linked text</text><text x="22" y="185" fill="#BDC4E0" font-family="Inter,Segoe UI,Arial,sans-serif" font-size="17">Remove text link</text><rect x="20" y="212" width="282" height="1" fill="#353958"/><text x="22" y="251" fill="#BDC4E0" font-family="Inter,Segoe UI,Arial,sans-serif" font-size="17">Color</text><rect x="238" y="230" width="44" height="30" rx="6" fill="#A78BFA"/><text x="22" y="306" fill="#BDC4E0" font-family="Inter,Segoe UI,Arial,sans-serif" font-size="17">Transparency</text><rect x="22" y="324" width="238" height="7" rx="4" fill="#343850"/><rect x="22" y="324" width="178" height="7" rx="4" fill="#A78BFA"/><text x="22" y="353" fill="#FCA5A5" font-family="Inter,Segoe UI,Arial,sans-serif" font-size="17">Delete label</text></g>
<rect x="44" y="627" width="1112" height="45" rx="12" fill="#11152A"/><text x="64" y="656" fill="#A7AFCE" font-family="Inter,Segoe UI,Arial,sans-serif" font-size="15">Illustrative dark-theme preview — replace with a local Obsidian capture before release submission.</text>
</svg>